<mxfile host="app.diagrams.net" agent="Mozilla/5.0 (Windows NT 10.0; Win64; x64) AppleWebKit/537.36 (KHTML, like Gecko) Chrome/140.0.0.0 Safari/537.36" version="28.2.3">
  <diagram name="第 1 页" id="eJBSKKrEVdh33glqMu5q">
    <mxGraphModel dx="1826" dy="743" grid="0" gridSize="10" guides="1" tooltips="1" connect="1" arrows="1" fold="1" page="0" pageScale="1" pageWidth="827" pageHeight="1169" math="0" shadow="0">
      <root>
        <mxCell id="0" />
        <mxCell id="1" parent="0" />
        <mxCell id="gLtKXRujPlf_qxjptzJL-4" style="edgeStyle=orthogonalEdgeStyle;rounded=0;sketch=1;hachureGap=4;jiggle=2;curveFitting=1;orthogonalLoop=1;jettySize=auto;html=1;entryX=1;entryY=0.5;entryDx=0;entryDy=0;fontFamily=Comic Sans MS;" edge="1" parent="1" source="gLtKXRujPlf_qxjptzJL-2" target="gLtKXRujPlf_qxjptzJL-3">
          <mxGeometry relative="1" as="geometry" />
        </mxCell>
        <mxCell id="gLtKXRujPlf_qxjptzJL-6" value="step 2: Get cluster name" style="edgeLabel;html=1;align=center;verticalAlign=middle;resizable=0;points=[];sketch=1;hachureGap=4;jiggle=2;curveFitting=1;fontFamily=Comic Sans MS;" vertex="1" connectable="0" parent="gLtKXRujPlf_qxjptzJL-4">
          <mxGeometry x="0.088" y="-1" relative="1" as="geometry">
            <mxPoint as="offset" />
          </mxGeometry>
        </mxCell>
        <mxCell id="gLtKXRujPlf_qxjptzJL-2" value="keyChain" style="rounded=1;whiteSpace=wrap;html=1;sketch=1;hachureGap=4;jiggle=2;curveFitting=1;fontFamily=Comic Sans MS;" vertex="1" parent="1">
          <mxGeometry x="590" y="380" width="120" height="60" as="geometry" />
        </mxCell>
        <mxCell id="gLtKXRujPlf_qxjptzJL-33" value="" style="edgeStyle=orthogonalEdgeStyle;rounded=0;sketch=1;hachureGap=4;jiggle=2;curveFitting=1;orthogonalLoop=1;jettySize=auto;html=1;fontFamily=Comic Sans MS;entryX=0.5;entryY=0;entryDx=0;entryDy=0;" edge="1" parent="1" source="gLtKXRujPlf_qxjptzJL-3" target="gLtKXRujPlf_qxjptzJL-36">
          <mxGeometry relative="1" as="geometry">
            <mxPoint x="280" y="565" as="targetPoint" />
          </mxGeometry>
        </mxCell>
        <mxCell id="gLtKXRujPlf_qxjptzJL-34" value="IMPALADs config And connPoolArgs" style="edgeLabel;html=1;align=center;verticalAlign=middle;resizable=0;points=[];sketch=1;hachureGap=4;jiggle=2;curveFitting=1;fontFamily=Comic Sans MS;" vertex="1" connectable="0" parent="gLtKXRujPlf_qxjptzJL-33">
          <mxGeometry x="-0.0333" y="2" relative="1" as="geometry">
            <mxPoint as="offset" />
          </mxGeometry>
        </mxCell>
        <mxCell id="gLtKXRujPlf_qxjptzJL-3" value="&lt;font style=&quot;font-size: 13px;&quot;&gt;IMPALA PNS config manager&lt;/font&gt;" style="ellipse;whiteSpace=wrap;html=1;sketch=1;hachureGap=4;jiggle=2;curveFitting=1;fontFamily=Comic Sans MS;" vertex="1" parent="1">
          <mxGeometry x="180" y="375" width="200" height="70" as="geometry" />
        </mxCell>
        <mxCell id="gLtKXRujPlf_qxjptzJL-8" style="edgeStyle=orthogonalEdgeStyle;rounded=0;sketch=1;hachureGap=4;jiggle=2;curveFitting=1;orthogonalLoop=1;jettySize=auto;html=1;fontFamily=Comic Sans MS;" edge="1" parent="1" source="gLtKXRujPlf_qxjptzJL-7" target="gLtKXRujPlf_qxjptzJL-3">
          <mxGeometry relative="1" as="geometry" />
        </mxCell>
        <mxCell id="gLtKXRujPlf_qxjptzJL-9" value="1" style="edgeLabel;html=1;align=center;verticalAlign=middle;resizable=0;points=[];sketch=1;hachureGap=4;jiggle=2;curveFitting=1;fontFamily=Comic Sans MS;" vertex="1" connectable="0" parent="gLtKXRujPlf_qxjptzJL-8">
          <mxGeometry x="-0.1304" y="-1" relative="1" as="geometry">
            <mxPoint as="offset" />
          </mxGeometry>
        </mxCell>
        <mxCell id="gLtKXRujPlf_qxjptzJL-17" value="step 1" style="edgeLabel;html=1;align=center;verticalAlign=middle;resizable=0;points=[];sketch=1;hachureGap=4;jiggle=2;curveFitting=1;fontFamily=Comic Sans MS;" vertex="1" connectable="0" parent="gLtKXRujPlf_qxjptzJL-8">
          <mxGeometry x="-0.0435" y="-1" relative="1" as="geometry">
            <mxPoint as="offset" />
          </mxGeometry>
        </mxCell>
        <mxCell id="gLtKXRujPlf_qxjptzJL-7" value="BEGIN" style="ellipse;whiteSpace=wrap;html=1;sketch=1;hachureGap=4;jiggle=2;curveFitting=1;fontFamily=Comic Sans MS;" vertex="1" parent="1">
          <mxGeometry x="230" y="220" width="100" height="40" as="geometry" />
        </mxCell>
        <mxCell id="gLtKXRujPlf_qxjptzJL-18" value="" style="endArrow=none;html=1;rounded=0;sketch=1;hachureGap=4;jiggle=2;curveFitting=1;fontFamily=Comic Sans MS;exitX=0;exitY=0;exitDx=0;exitDy=0;dashed=1;entryX=1;entryY=0;entryDx=0;entryDy=0;" edge="1" parent="1" source="gLtKXRujPlf_qxjptzJL-3" target="gLtKXRujPlf_qxjptzJL-21">
          <mxGeometry width="50" height="50" relative="1" as="geometry">
            <mxPoint x="100" y="340" as="sourcePoint" />
            <mxPoint x="80" y="280" as="targetPoint" />
          </mxGeometry>
        </mxCell>
        <mxCell id="gLtKXRujPlf_qxjptzJL-19" value="" style="endArrow=none;html=1;rounded=0;sketch=1;hachureGap=4;jiggle=2;curveFitting=1;fontFamily=Comic Sans MS;entryX=0;entryY=1;entryDx=0;entryDy=0;dashed=1;exitX=1;exitY=1;exitDx=0;exitDy=0;" edge="1" parent="1" source="gLtKXRujPlf_qxjptzJL-21" target="gLtKXRujPlf_qxjptzJL-3">
          <mxGeometry width="50" height="50" relative="1" as="geometry">
            <mxPoint x="80" y="560" as="sourcePoint" />
            <mxPoint x="120" y="490" as="targetPoint" />
          </mxGeometry>
        </mxCell>
        <mxCell id="gLtKXRujPlf_qxjptzJL-21" value="" style="swimlane;startSize=0;sketch=1;hachureGap=4;jiggle=2;curveFitting=1;fontFamily=Comic Sans MS;" vertex="1" parent="1">
          <mxGeometry x="-180" y="290" width="220" height="275" as="geometry" />
        </mxCell>
        <mxCell id="gLtKXRujPlf_qxjptzJL-22" value="fetch config (get all IMIPALADs)" style="rounded=1;whiteSpace=wrap;html=1;sketch=1;hachureGap=4;jiggle=2;curveFitting=1;fontFamily=Comic Sans MS;" vertex="1" parent="gLtKXRujPlf_qxjptzJL-21">
          <mxGeometry x="15" y="40" width="190" height="50" as="geometry" />
        </mxCell>
        <mxCell id="gLtKXRujPlf_qxjptzJL-26" value="register callback to update impalad configs&lt;br&gt;(contains&amp;nbsp;SubscribeCallback and&amp;nbsp;&lt;span style=&quot;white-space: pre;&quot; data-slate-fragment=&quot;JTVCJTdCJTIydHlwZSUyMiUzQSUyMnBhcmFncmFwaCUyMiUyQyUyMmNoaWxkcmVuJTIyJTNBJTVCJTdCJTIyaWQlMjIlM0ElMjJWT3dscThwV1pWJTIyJTJDJTIycGFyYUlkeCUyMiUzQTAlMkMlMjJzcmMlMjIlM0ElMjJwZXJpb2RDaGVja2VyJTIyJTJDJTIyZHN0JTIyJTNBJTIyJUU1JUFFJTlBJUU2JTlDJTlGJUU2JUEzJTgwJUU2JTlGJUE1JTIyJTJDJTIybWV0YWRhdGElMjIlM0ElMjIlMjIlMkMlMjJtYXRjaGVzJTIyJTNBbnVsbCUyQyUyMnRyYW5zbGF0ZWRCeSUyMiUzQW51bGwlMkMlMjJtZXRhRGF0YSUyMiUzQSU1QiU1RCUyQyUyMnRleHQlMjIlM0ElMjJwZXJpb2RDaGVja2VyJTIyJTdEJTVEJTdEJTVE&quot;&gt;periodChecker [every 10s])&lt;/span&gt;" style="rounded=1;whiteSpace=wrap;html=1;sketch=1;hachureGap=4;jiggle=2;curveFitting=1;fontFamily=Comic Sans MS;" vertex="1" parent="gLtKXRujPlf_qxjptzJL-21">
          <mxGeometry x="20" y="160" width="190" height="80" as="geometry" />
        </mxCell>
        <mxCell id="gLtKXRujPlf_qxjptzJL-28" value="step 4" style="text;html=1;align=center;verticalAlign=middle;whiteSpace=wrap;rounded=0;fontFamily=Comic Sans MS;" vertex="1" parent="gLtKXRujPlf_qxjptzJL-21">
          <mxGeometry x="30" y="130" width="60" height="30" as="geometry" />
        </mxCell>
        <mxCell id="gLtKXRujPlf_qxjptzJL-29" value="step 3" style="text;html=1;align=center;verticalAlign=middle;whiteSpace=wrap;rounded=0;fontFamily=Comic Sans MS;" vertex="1" parent="gLtKXRujPlf_qxjptzJL-21">
          <mxGeometry x="30" y="10" width="60" height="30" as="geometry" />
        </mxCell>
        <mxCell id="gLtKXRujPlf_qxjptzJL-38" value="" style="edgeStyle=orthogonalEdgeStyle;rounded=0;sketch=1;hachureGap=4;jiggle=2;curveFitting=1;orthogonalLoop=1;jettySize=auto;html=1;fontFamily=Comic Sans MS;" edge="1" parent="1" source="gLtKXRujPlf_qxjptzJL-36" target="gLtKXRujPlf_qxjptzJL-37">
          <mxGeometry relative="1" as="geometry" />
        </mxCell>
        <mxCell id="gLtKXRujPlf_qxjptzJL-36" value="&lt;span style=&quot;&quot;&gt;&lt;font style=&quot;font-size: 14px;&quot;&gt;CStoreDBDataSource&lt;/font&gt;&lt;/span&gt;" style="shape=datastore;whiteSpace=wrap;html=1;sketch=1;hachureGap=4;jiggle=2;curveFitting=1;fontFamily=Comic Sans MS;" vertex="1" parent="1">
          <mxGeometry x="200" y="550" width="160" height="70" as="geometry" />
        </mxCell>
        <mxCell id="gLtKXRujPlf_qxjptzJL-43" style="edgeStyle=orthogonalEdgeStyle;rounded=0;sketch=1;hachureGap=4;jiggle=2;curveFitting=1;orthogonalLoop=1;jettySize=auto;html=1;exitX=0.5;exitY=1;exitDx=0;exitDy=0;fontFamily=Comic Sans MS;" edge="1" parent="1" source="gLtKXRujPlf_qxjptzJL-37" target="gLtKXRujPlf_qxjptzJL-42">
          <mxGeometry relative="1" as="geometry" />
        </mxCell>
        <mxCell id="gLtKXRujPlf_qxjptzJL-46" value="YES" style="edgeLabel;html=1;align=center;verticalAlign=middle;resizable=0;points=[];sketch=1;hachureGap=4;jiggle=2;curveFitting=1;fontFamily=Comic Sans MS;" vertex="1" connectable="0" parent="gLtKXRujPlf_qxjptzJL-43">
          <mxGeometry x="0.02" y="-2" relative="1" as="geometry">
            <mxPoint as="offset" />
          </mxGeometry>
        </mxCell>
        <mxCell id="gLtKXRujPlf_qxjptzJL-47" style="edgeStyle=orthogonalEdgeStyle;rounded=0;sketch=1;hachureGap=4;jiggle=2;curveFitting=1;orthogonalLoop=1;jettySize=auto;html=1;exitX=1;exitY=0.5;exitDx=0;exitDy=0;fontFamily=Comic Sans MS;entryX=0;entryY=0.5;entryDx=0;entryDy=0;" edge="1" parent="1" source="gLtKXRujPlf_qxjptzJL-37" target="gLtKXRujPlf_qxjptzJL-51">
          <mxGeometry relative="1" as="geometry">
            <mxPoint x="490" y="750" as="targetPoint" />
          </mxGeometry>
        </mxCell>
        <mxCell id="gLtKXRujPlf_qxjptzJL-48" value="NO" style="edgeLabel;html=1;align=center;verticalAlign=middle;resizable=0;points=[];sketch=1;hachureGap=4;jiggle=2;curveFitting=1;fontFamily=Comic Sans MS;" vertex="1" connectable="0" parent="gLtKXRujPlf_qxjptzJL-47">
          <mxGeometry x="-0.2602" y="-1" relative="1" as="geometry">
            <mxPoint x="1" as="offset" />
          </mxGeometry>
        </mxCell>
        <mxCell id="gLtKXRujPlf_qxjptzJL-37" value="all SingleDataSource inited" style="rhombus;whiteSpace=wrap;html=1;fontFamily=Comic Sans MS;sketch=1;hachureGap=4;jiggle=2;curveFitting=1;" vertex="1" parent="1">
          <mxGeometry x="192.5" y="700" width="175" height="100" as="geometry" />
        </mxCell>
        <mxCell id="gLtKXRujPlf_qxjptzJL-42" value="END" style="ellipse;whiteSpace=wrap;html=1;sketch=1;hachureGap=4;jiggle=2;curveFitting=1;fontFamily=Comic Sans MS;" vertex="1" parent="1">
          <mxGeometry x="230" y="900" width="100" height="40" as="geometry" />
        </mxCell>
        <mxCell id="gLtKXRujPlf_qxjptzJL-53" style="edgeStyle=orthogonalEdgeStyle;rounded=0;sketch=1;hachureGap=4;jiggle=2;curveFitting=1;orthogonalLoop=1;jettySize=auto;html=1;exitX=1;exitY=0.5;exitDx=0;exitDy=0;entryX=1;entryY=0.5;entryDx=0;entryDy=0;fontFamily=Comic Sans MS;" edge="1" parent="1" source="gLtKXRujPlf_qxjptzJL-49" target="gLtKXRujPlf_qxjptzJL-51">
          <mxGeometry relative="1" as="geometry" />
        </mxCell>
        <mxCell id="gLtKXRujPlf_qxjptzJL-49" value="SingleDataSource" style="shape=datastore;whiteSpace=wrap;html=1;sketch=1;hachureGap=4;jiggle=2;curveFitting=1;fontFamily=Comic Sans MS;" vertex="1" parent="1">
          <mxGeometry x="480" y="870" width="130" height="50" as="geometry" />
        </mxCell>
        <mxCell id="gLtKXRujPlf_qxjptzJL-56" style="edgeStyle=orthogonalEdgeStyle;rounded=0;sketch=1;hachureGap=4;jiggle=2;curveFitting=1;orthogonalLoop=1;jettySize=auto;html=1;entryX=1;entryY=0.5;entryDx=0;entryDy=0;fontFamily=Comic Sans MS;" edge="1" parent="1" source="gLtKXRujPlf_qxjptzJL-51" target="gLtKXRujPlf_qxjptzJL-36">
          <mxGeometry relative="1" as="geometry">
            <Array as="points">
              <mxPoint x="545" y="585" />
            </Array>
          </mxGeometry>
        </mxCell>
        <mxCell id="gLtKXRujPlf_qxjptzJL-58" style="edgeStyle=orthogonalEdgeStyle;rounded=0;sketch=1;hachureGap=4;jiggle=2;curveFitting=1;orthogonalLoop=1;jettySize=auto;html=1;exitX=0;exitY=0.75;exitDx=0;exitDy=0;entryX=0;entryY=0.5;entryDx=0;entryDy=0;fontFamily=Comic Sans MS;" edge="1" parent="1" source="gLtKXRujPlf_qxjptzJL-51" target="gLtKXRujPlf_qxjptzJL-49">
          <mxGeometry relative="1" as="geometry" />
        </mxCell>
        <mxCell id="gLtKXRujPlf_qxjptzJL-60" value="ConnPoolArgs" style="edgeLabel;html=1;align=center;verticalAlign=middle;resizable=0;points=[];sketch=1;hachureGap=4;jiggle=2;curveFitting=1;fontFamily=Comic Sans MS;" vertex="1" connectable="0" parent="gLtKXRujPlf_qxjptzJL-58">
          <mxGeometry x="-0.0857" y="1" relative="1" as="geometry">
            <mxPoint as="offset" />
          </mxGeometry>
        </mxCell>
        <mxCell id="gLtKXRujPlf_qxjptzJL-51" value="Init&amp;nbsp;SingleDataSource with connPoolArgs" style="rounded=1;whiteSpace=wrap;html=1;sketch=1;hachureGap=4;jiggle=2;curveFitting=1;fontFamily=Comic Sans MS;" vertex="1" parent="1">
          <mxGeometry x="475" y="720" width="140" height="60" as="geometry" />
        </mxCell>
      </root>
    </mxGraphModel>
  </diagram>
</mxfile>
